<svg xmlns="http://www.w3.org/2000/svg" width="700" height="700" viewBox="0 0 700 700"><line x1="674" y1="134" x2="636" y2="47" stroke="#6b5f6b" stroke-width="1" opacity="0.14"/>
<line x1="674" y1="134" x2="578" y2="109" stroke="#6b5f6b" stroke-width="1" opacity="0.14"/>
<line x1="45" y1="301" x2="115" y2="243" stroke="#6b5f6b" stroke-width="1" opacity="0.14"/>
<line x1="45" y1="301" x2="26" y2="183" stroke="#6b5f6b" stroke-width="1" opacity="0.14"/>
<line x1="270" y1="248" x2="304" y2="179" stroke="#6b5f6b" stroke-width="1" opacity="0.14"/>
<line x1="270" y1="248" x2="240" y2="364" stroke="#6b5f6b" stroke-width="1" opacity="0.14"/>
<line x1="162" y1="124" x2="124" y2="114" stroke="#6b5f6b" stroke-width="1" opacity="0.14"/>
<line x1="162" y1="124" x2="115" y2="243" stroke="#6b5f6b" stroke-width="1" opacity="0.14"/>
<line x1="578" y1="109" x2="569" y2="147" stroke="#6b5f6b" stroke-width="1" opacity="0.14"/>
<line x1="578" y1="109" x2="636" y2="47" stroke="#6b5f6b" stroke-width="1" opacity="0.14"/>
<line x1="624" y1="452" x2="578" y2="449" stroke="#6b5f6b" stroke-width="1" opacity="0.14"/>
<line x1="624" y1="452" x2="585" y2="320" stroke="#6b5f6b" stroke-width="1" opacity="0.14"/>
<line x1="52" y1="50" x2="124" y2="114" stroke="#6b5f6b" stroke-width="1" opacity="0.14"/>
<line x1="52" y1="50" x2="162" y2="124" stroke="#6b5f6b" stroke-width="1" opacity="0.14"/>
<line x1="115" y1="243" x2="26" y2="183" stroke="#6b5f6b" stroke-width="1" opacity="0.14"/>
<line x1="258" y1="537" x2="245" y2="479" stroke="#6b5f6b" stroke-width="1" opacity="0.14"/>
<line x1="258" y1="537" x2="240" y2="364" stroke="#6b5f6b" stroke-width="1" opacity="0.14"/>
<line x1="594" y1="223" x2="569" y2="147" stroke="#6b5f6b" stroke-width="1" opacity="0.14"/>
<line x1="594" y1="223" x2="638" y2="290" stroke="#6b5f6b" stroke-width="1" opacity="0.14"/>
<line x1="578" y1="449" x2="585" y2="320" stroke="#6b5f6b" stroke-width="1" opacity="0.14"/>
<line x1="245" y1="479" x2="240" y2="364" stroke="#6b5f6b" stroke-width="1" opacity="0.14"/>
<line x1="623" y1="304" x2="638" y2="290" stroke="#6b5f6b" stroke-width="1" opacity="0.14"/>
<line x1="623" y1="304" x2="585" y2="320" stroke="#6b5f6b" stroke-width="1" opacity="0.14"/>
<line x1="452" y1="368" x2="387" y2="372" stroke="#6b5f6b" stroke-width="1" opacity="0.14"/>
<line x1="452" y1="368" x2="585" y2="320" stroke="#6b5f6b" stroke-width="1" opacity="0.14"/>
<line x1="304" y1="179" x2="409" y2="119" stroke="#6b5f6b" stroke-width="1" opacity="0.14"/>
<line x1="409" y1="119" x2="407" y2="100" stroke="#6b5f6b" stroke-width="1" opacity="0.14"/>
<line x1="387" y1="372" x2="240" y2="364" stroke="#6b5f6b" stroke-width="1" opacity="0.14"/>
<line x1="638" y1="290" x2="585" y2="320" stroke="#6b5f6b" stroke-width="1" opacity="0.14"/>
<line x1="64" y1="490" x2="245" y2="479" stroke="#6b5f6b" stroke-width="1" opacity="0.14"/>
<line x1="64" y1="490" x2="45" y2="301" stroke="#6b5f6b" stroke-width="1" opacity="0.14"/>
<line x1="407" y1="100" x2="304" y2="179" stroke="#6b5f6b" stroke-width="1" opacity="0.14"/>
<circle cx="674" cy="134" r="2.4" fill="#6b5f6b" opacity="0.22"/>
<circle cx="45" cy="301" r="2.4" fill="#6b5f6b" opacity="0.22"/>
<circle cx="270" cy="248" r="2.4" fill="#6b5f6b" opacity="0.22"/>
<circle cx="162" cy="124" r="2.4" fill="#6b5f6b" opacity="0.22"/>
<circle cx="578" cy="109" r="2.4" fill="#6b5f6b" opacity="0.22"/>
<circle cx="624" cy="452" r="2.4" fill="#6b5f6b" opacity="0.22"/>
<circle cx="52" cy="50" r="2.4" fill="#6b5f6b" opacity="0.22"/>
<circle cx="115" cy="243" r="2.4" fill="#6b5f6b" opacity="0.22"/>
<circle cx="258" cy="537" r="2.4" fill="#6b5f6b" opacity="0.22"/>
<circle cx="636" cy="47" r="2.4" fill="#6b5f6b" opacity="0.22"/>
<circle cx="594" cy="223" r="2.4" fill="#6b5f6b" opacity="0.22"/>
<circle cx="578" cy="449" r="2.4" fill="#6b5f6b" opacity="0.22"/>
<circle cx="245" cy="479" r="2.4" fill="#6b5f6b" opacity="0.22"/>
<circle cx="623" cy="304" r="2.4" fill="#6b5f6b" opacity="0.22"/>
<circle cx="26" cy="183" r="2.4" fill="#6b5f6b" opacity="0.22"/>
<circle cx="452" cy="368" r="2.4" fill="#6b5f6b" opacity="0.22"/>
<circle cx="304" cy="179" r="2.4" fill="#6b5f6b" opacity="0.22"/>
<circle cx="240" cy="364" r="2.4" fill="#6b5f6b" opacity="0.22"/>
<circle cx="124" cy="114" r="2.4" fill="#6b5f6b" opacity="0.22"/>
<circle cx="409" cy="119" r="2.4" fill="#6b5f6b" opacity="0.22"/>
<circle cx="387" cy="372" r="2.4" fill="#6b5f6b" opacity="0.22"/>
<circle cx="638" cy="290" r="2.4" fill="#6b5f6b" opacity="0.22"/>
<circle cx="64" cy="490" r="2.4" fill="#6b5f6b" opacity="0.22"/>
<circle cx="569" cy="147" r="2.4" fill="#6b5f6b" opacity="0.22"/>
<circle cx="407" cy="100" r="2.4" fill="#6b5f6b" opacity="0.22"/>
<circle cx="585" cy="320" r="2.4" fill="#6b5f6b" opacity="0.22"/>
</svg>
